PathFileType	4	(X/Y/Z)	RBDS010\RBDS010runT35.trc
DataRate	CameraRate	NumFrames	NumMarkers	Units	OrigDataRate	OrigDataStartFrame	OrigNumFrames
150.000000	150.000000	5	32	mm	150.000000	2812	4500
Frame#	Time	L.ASIS			L.Heel.Bottom			L.Heel.Lateral			L.Heel.Top			L.Iliac.Crest			L.MT5			L.PSIS			L.Shank.Bottom.Lateral			L.Shank.Bottom.Medial			L.Shank.Top.Lateral			L.Shank.Top.Medial			L.Thigh.Bottom.Lateral			L.Thigh.Bottom.Medial			L.Thigh.Top.Lateral			L.Thigh.Top.Medial			R.ASIS			R.ASY			R.Heel.Bottom			R.Heel.Lateral			R.Heel.Top			R.Iliac.Crest			R.MT1			R.MT5			R.PSIS			R.Shank.Bottom.Lateral			R.Shank.Bottom.Medial			R.Shank.Top.Lateral			R.Shank.Top.Medial			R.Thigh.Bottom.Lateral			R.Thigh.Bottom.Medial			R.Thigh.Top.Lateral			R.Thigh.Top.Medial			
		X1	Y1	Z1	X2	Y2	Z2	X3	Y3	Z3	X4	Y4	Z4	X5	Y5	Z5	X6	Y6	Z6	X7	Y7	Z7	X8	Y8	Z8	X9	Y9	Z9	X10	Y10	Z10	X11	Y11	Z11	X12	Y12	Z12	X13	Y13	Z13	X14	Y14	Z14	X15	Y15	Z15	X16	Y16	Z16	X17	Y17	Z17	X18	Y18	Z18	X19	Y19	Z19	X20	Y20	Z20	X21	Y21	Z21	X22	Y22	Z22	X23	Y23	Z23	X24	Y24	Z24	X25	Y25	Z25	X26	Y26	Z26	X27	Y27	Z27	X28	Y28	Z28	X29	Y29	Z29	X30	Y30	Z30	X31	Y31	Z31	X32	Y32	Z32	

2813	18.74666666666667	2401.724329093765	939.7294408865349	865.4813432917782	1755.144565290472	231.0470106624532	955.3065531183324	1778.833963004647	213.488760422517	907.9566212756788	1800.913768097175	252.300249905398	947.9160665118651	2379.244785188013	1036.691974375213	837.3801596587791	1861.418597703215	79.46607923280054	884.2229632110374	2243.07749503951	1016.068390095733	932.5876723134903	1878.467560632665	275.4142368719923	885.7048836775568	1857.388663688194	297.3970446715826	930.1262546681747	1917.356650352904	343.6552628306394	868.8691891588807	1896.227666509173	366.6633403318694	912.7095559490213	2135.394106279628	605.2597265177102	838.8442573089698	2086.728504134959	625.9770144256576	889.4287925674513	2161.86325783729	711.9963703389474	826.3512008937219	2119.306749317986	730.8293341678747	876.524779501897	2401.362747184355	955.9480525892124	1088.710843222827	2450.722054816717	147.795256909093	1039.321737477992	2263.529888140377	161.9117732302353	1030.318600778941	2295.362455245308	169.3187997238042	1074.739983274139	2291.187598178263	202.6418077196386	1030.64584691978	2329.309360146752	1045.673452238358	1131.428624540649	2460.478482648636	91.49130297729231	986.5759980994991	2440.005715959697	94.57614519716536	1098.614353737043	2239.743552392496	1018.720863854904	1032.045084218626	2390.884728808205	266.7418385886749	1085.636186801803	2352.359017942056	287.5106826403092	1058.015073001695	2420.037020744525	345.2401869153892	1099.537254597929	2378.787041309549	363.2584142063401	1069.987339380257	2486.825282741322	630.9073570395993	1128.604209907205	2435.896237867637	592.9161766065702	1090.860961823434	2412.95873440225	709.9974224764255	1143.887198700279	2364.041529527174	674.2663042738646	1110.511273285685	
2814	18.75333333333333	2404.05925423404	941.5297255954919	866.0869638652375	1748.510076413318	247.2133865271844	951.2761683548372	1771.976928113185	227.7441960119108	904.489777057122	1795.784125365338	265.4437282020741	944.6299619279727	2383.322962559942	1039.245546312731	838.2613024890287	1846.8772755513	87.47550280836414	883.5196462157804	2245.462884400982	1018.991515225009	931.9019735628239	1872.361003963266	283.4831647514441	883.6700890730266	1850.96380425574	305.7544966216977	927.8156197342679	1912.37501049791	351.136307468704	867.3886585100208	1890.807095091014	374.5471942351342	910.7825507389573	2134.089329553871	609.7259480327756	839.6940226880952	2085.163770865045	631.6144213456733	889.4549238534302	2162.357386164486	715.9420206439693	826.5919012452973	2119.527254768574	735.8424533716034	876.0125909489653	2402.148248974198	957.7575979499293	1089.199572115443	2476.282681046366	141.7303198610788	1039.308725699704	2288.73108206821	141.9524513492935	1028.147597996694	2319.485659427067	151.3208794309301	1072.986386593061	2313.216536140354	184.5464188351557	1029.193431470933	2330.088526530561	1047.902239690276	1131.189812163636	2490.665954929123	86.93273168401331	986.1678350956655	2468.874737185312	87.33870022747632	1097.851273936481	2241.502466393028	1021.326513263171	1031.393619859984	2406.772123530594	256.4732098819721	1084.845787444254	2367.439613576796	274.3747947597666	1056.433598070789	2429.915255522097	336.717395778957	1098.92878373017	2388.194292957739	351.6983538664991	1068.454089964753	2483.956982740126	630.4700121611434	1128.108831316083	2432.184266428857	592.6928155779026	1090.973504371254	2411.232007962957	710.5721631330102	1143.113865364653	2361.763817054342	675.3710972925876	1110.091144853929	
2815	18.76	2406.036209009317	943.1666104616918	866.4253729243526	1742.211692044653	263.172459599964	947.0091280229685	1765.560383836761	241.8311865158492	900.9231538874501	1790.762178068985	278.4755470253631	941.3033681845199	2386.522151282059	1041.53885833227	839.0250580396815	1832.96267022553	96.15143305044654	883.0950272691205	2247.522154865194	1021.562560554296	931.369463531018	1866.775375333376	291.4522548791359	881.7440396144199	1845.049654774724	314.297918549756	925.4322217850166	1908.305795173004	358.2049453894797	865.9491266261761	1886.312998578313	382.3020274274233	908.7314800918507	2134.276790181947	612.8702807438061	840.4444651946468	2084.816540364772	635.7840445303622	889.1242278045182	2163.867355790677	718.6193881992502	826.5214028611504	2120.40646696167	739.4871522390794	874.89506600074	2402.902836901203	958.9995616109222	1089.528954313972	2501.259843885208	136.569603234822	1039.384888869632	2314.255472190109	123.2291438973102	1026.052711798222	2343.874328059604	134.2865187363697	1071.309633957612	2335.487934012221	167.4268833121182	1027.89497092221	2331.166788233086	1049.416069279007	1131.022344824032	2519.999622209883	83.70760112074024	985.7647931767202	2497.206837538659	81.03350737124434	1097.02593663917	2243.087237877622	1023.492085739527	1030.88749712478	2422.329183636641	246.5917001169314	1084.15039261466	2382.374345908706	261.5978779370723	1055.040403873231	2439.309508847427	328.1128770524541	1098.478655671643	2397.305046076601	340.0332555257233	1067.170339234519	2479.841970595912	628.9034747014576	1127.764384398	2427.370575378289	591.7482301867809	1090.806925476119	2408.528080590031	710.2268036960733	1142.461840991016	2358.564312402944	675.9033166623942	1109.420572728003	
2816	18.76666666666667	2407.724469267052	944.6145684091643	866.5067826462102	1736.150899284281	278.8424454285802	942.5782306679355	1759.452174478934	255.6492653924549	897.3239799859793	1785.751713207566	291.3528125106008	937.9596808210511	2388.798246371091	1043.553972380459	839.6331878377542	1819.606982724891	105.397689872127	882.9922048059622	2249.287149142121	1023.723549399281	930.954189824812	1861.592106339573	299.3687554462776	879.9573979623231	1839.585979551774	323.0497574344813	923.0416896895724	1905.009488856209	364.9048676978636	864.5938421287854	1882.662974621325	389.9408078368998	906.6379288096551	2135.869119485611	614.6390477745326	841.0914652478576	2085.642322207436	638.4224027761999	888.494025053893	2166.314921922072	719.994494315413	826.1631487287367	2121.915388352217	741.7163227425373	873.2552042234574	2403.648370050852	959.7414790036697	1089.695807703091	2525.341705357216	132.2942425259129	1039.520441806402	2339.678306997701	106.040074967192	1023.967617218867	2368.130471303727	118.4707363375733	1069.655724539478	2357.662600351078	151.5654954452027	1026.69311583532	2332.482733829409	1050.278552206871	1130.922367329391	2548.101676687087	81.73136792576911	985.3386591939844	2524.613281819682	75.63031131265342	1096.1064278389	2244.504696706067	1025.20663927812	1030.494010488167	2437.379054901814	237.2366317788264	1083.524636830303	2396.970607681132	249.3548415018076	1053.825129141664	2448.132282075178	319.5767870653937	1098.165895705323	2406.005670592757	328.4480589100226	1066.131182238418	2474.555875800661	626.2845982209033	1127.606735883089	2421.574627823548	590.1809687841878	1090.35948243752	2404.916337444039	709.025645617406	1141.975962110691	2354.543548993663	675.9211231710475	1108.532803625322	
2817	18.77333333333333	2409.21073693784	945.8341643758648	866.3628710350192	1730.317113734702	294.1811600106345	938.0720377151671	1753.581519797811	269.1396418765119	893.7622391529703	1780.751319429285	304.0530476638888	934.6213406110412	2390.18054033069	1045.269524097711	840.0605386946794	1806.75999289426	115.1278575303025	883.2296278873209	2250.809535542631	1025.413517348534	930.6053922147847	1856.743625600812	307.2809326430393	878.3228109870413	1834.564792713595	332.0120833657631	920.7056278125488	1902.375512892638	371.2947560034348	863.3543197835935	1879.801288308375	397.4718218191483	904.5831013921522	2138.73282870609	615.0338392104976	841.6365635050639	2087.571776207448	639.5173742894768	887.6498119241193	2169.587509541796	720.0840848345762	825.5682730462288	2124.02073108794	742.5275538802481	871.2309951430944	2404.393279906522	960.0549711428596	1089.708598988936	2548.168246088611	128.827408360568	1039.674215667931	2364.478451053645	90.62959001557151	1021.823707334166	2391.763786705008	104.0922284768208	1067.963374591458	2379.316188242649	137.2028303776903	1025.51680933773	2333.950046609764	1050.577989877412	1130.874632031729	2574.556755586397	80.83366115978023	984.8585345613393	2550.642743940497	71.05025785162432	1095.066321778197	2245.768075909136	1026.458885655787	1030.166393895674	2451.69951049463	228.5193600314375	1082.934036727509	2410.98975586601	237.8020014275143	1052.754449068325	2456.272811685894	311.2522423750207	1097.950731335353	2414.160372810379	317.131975730527	1065.298903867152	2468.255438318216	622.7402927983317	1127.660688208407	2414.978203436425	588.0963826352271	1089.664763564712	2400.5277638354	707.0672824572039	1141.685617146869	2349.854457374416	675.4839212233037	1107.484173760075	
